HIERARCHY
ROOT Hips
{
  OFFSET 13.6774 106.653 -34.4427
  CHANNELS 6 Xposition Yposition Zposition Zrotation Xrotation Yrotation
  JOINT ToSpine
  {
    OFFSET -2.69724 7.43032 -0.144315
    CHANNELS 3 Zrotation Xrotation Yrotation
    JOINT Spine
    {
      OFFSET -0.0310711 10.7595 1.96963
      CHANNELS 3 Zrotation Xrotation Yrotation
      JOINT Spine1
      {
        OFFSET 19.9056 3.91189 0.764692
        CHANNELS 3 Zrotation Xrotation Yrotation
        JOINT Neck
        {
          OFFSET 25.9749 7.03908 -0.130764
          CHANNELS 3 Zrotation Xrotation Yrotation
          JOINT Head
          {
            OFFSET 9.52751 0.295786 -0.907742
            CHANNELS 3 Zrotation Xrotation Yrotation
            End Site
            {
              OFFSET 16.4037 0.713936 2.7358
            }
          }
        }
        JOINT LeftShoulder
        {
          OFFSET 17.7449 4.33886 11.7777
          CHANNELS 3 Zrotation Xrotation Yrotation
          JOINT LeftArm
          {
            OFFSET 0.911315 1.27913 9.80584
            CHANNELS 3 Zrotation Xrotation Yrotation
            JOINT LeftForeArm
            {
              OFFSET 28.6126 1.18197 -3.53199
              CHANNELS 3 Zrotation Xrotation Yrotation
              JOINT LeftHand
              {
                OFFSET 27.5088 0.0218783 0.327423
                CHANNELS 3 Zrotation Xrotation Yrotation
                End Site
                {
                  OFFSET 18.6038 -0.000155887 0.382096
                }
              }
            }
          }
        }
        JOINT RightShoulder
        {
          OFFSET 17.1009 2.89543 -12.2328
          CHANNELS 3 Zrotation Xrotation Yrotation
          JOINT RightArm
          {
            OFFSET 1.4228 0.178766 -10.211
            CHANNELS 3 Zrotation Xrotation Yrotation
            JOINT RightForeArm
            {
              OFFSET 28.733 1.87905 2.64907
              CHANNELS 3 Zrotation Xrotation Yrotation
              JOINT RightHand
              {
                OFFSET 27.4588 0.290562 -0.101845
                CHANNELS 3 Zrotation Xrotation Yrotation
                End Site
                {
                  OFFSET 17.8396 -0.255518 -0.000602873
                }
              }
            }
          }
        }
      }
    }
  }
  JOINT LeftUpLeg
  {
    OFFSET -5.61296 -2.22332 -10.2353
    CHANNELS 3 Zrotation Xrotation Yrotation
    JOINT LeftLeg
    {
      OFFSET 2.56703 -44.7417 -7.93097
      CHANNELS 3 Zrotation Xrotation Yrotation
      JOINT LeftFoot
      {
        OFFSET 3.16933 -46.5642 -3.96578
        CHANNELS 3 Zrotation Xrotation Yrotation
        JOINT LeftToeBase
        {
          OFFSET 0.346054 -6.02161 12.8035
          CHANNELS 3 Zrotation Xrotation Yrotation
          End Site
          {
            OFFSET 0.134235 -1.35082 5.13018
          }
        }
      }
    }
  }
  JOINT RightUpLeg
  {
    OFFSET -5.7928 -1.72406 10.6446
    CHANNELS 3 Zrotation Xrotation Yrotation
    JOINT RightLeg
    {
      OFFSET -2.57161 -44.7178 -7.85259
      CHANNELS 3 Zrotation Xrotation Yrotation
      JOINT RightFoot
      {
        OFFSET -3.10148 -46.5936 -4.03391
        CHANNELS 3 Zrotation Xrotation Yrotation
        JOINT RightToeBase
        {
          OFFSET -0.0828122 -6.13587 12.8035
          CHANNELS 3 Zrotation Xrotation Yrotation
          End Site
          {
            OFFSET -0.131328 -1.35082 5.13018
          }
        }
      }
    }
  }
}
MOTION
Frames: 17
Frame Time: 0.03333333333333333
0.0000 93.1000 0.0000 75.2808 -24.4410 -3.3009 -71.2311 0.3024 87.6548 127.7626 65.1688 -42.1013 -6.5915 18.8459 7.7809 -129.7480 43.9628 153.0250 140.1745 84.6788 -104.9353 -0.7038 -18.0650 -27.9915 -65.0454 28.6393 -144.0286 29.6380 -2.9005 -93.9882 -0.0482 0.0889 0.3202 -2.5484 6.8396 45.7856 -137.2667 -2.9308 104.9565 14.9197 -9.1706 59.9735 0.4728 -0.2154 0.1653 -21.2495 15.4141 80.9804 -35.5559 82.0131 24.6050 0.5882 -17.5203 -2.2899 6.1448 -15.6855 20.8705 -21.3315 -17.2739 82.6317 19.8551 78.0290 -7.7534 -8.5328 -17.4535 1.4599 1.7196 -16.1124 -13.6502 
0.0000 93.1000 0.0000 74.0603 -24.8979 -4.4314 -71.2722 0.3544 87.6101 127.6786 65.2977 -40.9219 -6.6827 19.0529 7.5643 -129.9336 43.8639 153.0900 141.1328 85.0337 -105.9382 -0.6159 -18.0998 -27.2162 -64.9750 27.3966 -145.0670 29.9822 -3.1264 -94.3410 0.1528 0.1276 0.2508 -2.4478 6.9661 45.8105 -137.1196 -2.6197 104.6613 16.1211 -9.8818 59.6520 0.6864 -0.2987 0.2540 -22.6647 16.1780 80.7256 -30.6081 80.7733 20.5813 0.9331 -17.0189 -2.4309 6.4914 -15.6822 19.5799 -20.7342 -16.8930 82.9347 18.7215 77.4185 -7.5251 -9.5573 -16.2306 1.5291 1.6844 -18.1476 -14.3748 
0.0000 93.1000 0.0000 74.0178 -24.9279 -4.6288 -71.3610 0.7844 87.6219 126.8409 66.0310 -40.9118 -7.2144 18.7585 8.6527 -129.5181 44.0561 152.8151 144.1773 85.0142 -109.0537 -0.1064 -18.0345 -27.0571 -64.5799 26.7988 -147.1157 30.2091 -3.2416 -94.1162 0.0258 -0.3357 -0.3594 -2.3727 6.7960 44.9035 -137.6456 -1.6063 105.7450 15.7047 -9.4183 59.6290 0.5336 0.2767 0.2439 -24.9046 17.3547 80.9529 -25.2321 79.7117 14.1639 -0.2808 -16.1644 -1.9988 5.9593 -14.6388 20.4816 -21.4024 -16.0055 83.0455 16.7802 76.7781 -6.5312 -10.1044 -16.6498 1.6850 2.4001 -17.6717 -14.0896 
0.0000 93.1000 0.0000 73.2800 -24.4729 -5.3633 -71.3086 0.3878 87.6866 124.8875 66.2731 -40.1395 -6.9394 18.4771 9.7953 -130.1996 44.0713 152.9391 149.4998 85.3950 -114.6672 -0.3450 -17.6489 -26.5873 -65.2561 25.9648 -149.1297 29.1991 -3.3675 -94.1486 0.1599 0.1421 -0.0515 -2.3329 6.5562 45.1269 -138.1537 -1.4216 106.3791 16.4985 -10.5443 59.6653 0.5094 -0.2312 0.2138 -26.9640 18.3176 81.9209 -20.8956 77.8889 7.8049 -0.2597 -17.9621 -2.3542 5.3562 -15.0886 19.8566 -21.7449 -16.1127 83.7099 14.9508 75.0501 -4.4728 -8.3725 -15.9941 1.3292 2.4245 -17.9203 -15.1940 
0.0000 93.1000 0.0000 73.0430 -24.4814 -5.7333 -71.1473 -0.2810 87.5949 123.7040 66.4553 -38.3733 -7.1621 18.3823 9.8442 -129.7103 43.2834 152.5180 147.3143 85.1265 -112.1963 -0.7083 -17.3570 -25.8296 -66.0490 25.9502 -150.2194 28.5563 -2.8740 -93.8901 0.0036 0.3955 0.2496 -2.7053 6.3855 45.2761 -138.8346 -1.4085 106.6300 16.4470 -11.1038 60.0727 0.1247 -0.4527 0.3276 -29.0411 20.2165 82.5826 -17.4013 75.8761 3.3503 -0.4961 -17.9916 -2.1737 5.8581 -16.6594 20.5357 -21.8739 -15.7678 83.7077 12.9092 73.6517 -3.6192 -7.6949 -17.5526 0.8171 2.0103 -17.0112 -13.9920 
0.0000 93.1000 0.0000 72.2457 -24.2349 -5.6519 -71.0574 -0.1520 87.6822 121.7535 66.9766 -36.7308 -6.6343 18.0913 10.3244 -127.8209 43.1215 150.2874 151.9250 85.5346 -114.0401 -0.6267 -17.8687 -24.8329 -66.1315 25.0103 -152.1204 28.9174 -1.9500 -92.5998 -0.0530 0.1623 0.0513 -2.8687 6.2502 45.2060 -138.8939 -1.1829 106.9702 16.9540 -10.4757 60.2059 -0.0399 -0.1315 0.1556 -31.0624 20.2132 85.1070 -15.1024 72.6366 -2.8418 0.0321 -17.3749 -1.8972 7.7268 -19.2404 22.5491 -23.2819 -16.0281 83.5927 10.5686 71.3114 -1.3172 -7.1555 -16.3569 0.7639 1.7965 -15.3316 -11.5325 
0.0000 93.1000 0.0000 71.9234 -23.9008 -5.5668 -71.0752 -0.3191 87.6269 119.7028 67.8628 -35.0599 -6.5084 17.9058 10.9957 -126.8460 43.0867 149.0259 156.5318 85.8969 -118.9722 -1.1276 -17.7688 -25.3585 -66.0253 23.9162 -153.8918 29.4021 -2.2519 -93.0377 -0.1863 1.1456 -0.0796 -2.2807 5.9156 44.6914 -138.6137 -0.2101 106.9501 16.7237 -10.2392 60.0271 0.8553 -1.2607 0.9874 -31.9006 20.8212 86.7712 -13.4428 69.4503 -5.7165 -0.0003 -17.3232 -2.9430 8.2969 -19.0962 21.1768 -23.9604 -16.3608 83.0674 9.3449 68.7688 -0.1968 -6.3096 -13.6143 1.3219 2.3749 -15.8541 -10.8203 
0.0000 93.1000 0.0000 72.1870 -24.4381 -5.0269 -70.9975 -0.2922 87.7178 118.6900 67.9235 -33.9016 -6.1515 18.2549 10.7879 -127.6227 42.9534 151.3442 144.9344 84.7324 -108.9961 -0.9359 -17.7707 -24.8277 -67.0322 23.9407 -154.7487 29.1094 -2.1928 -92.3989 -0.0594 0.7795 -0.2015 -2.6386 6.7983 44.2428 -137.9124 -0.1448 106.2590 17.3460 -10.2156 61.1443 0.2781 -0.8764 0.5524 -33.0306 20.9852 88.7025 -10.9038 67.8293 -9.0070 0.1965 -19.2638 -2.7028 8.2505 -17.9893 21.7985 -24.0047 -17.0575 82.5516 8.2636 66.5128 4.2472 -5.1227 -10.2893 0.8963 2.2263 -17.8705 -10.6175 
0.0000 93.1000 0.0000 73.3762 -25.0030 -4.9520 -70.9943 0.1630 87.7013 120.5450 68.1926 -36.0358 -6.2002 18.6012 10.3875 -125.7980 41.9789 151.3005 146.9236 84.0817 -110.2567 -0.6563 -17.8523 -24.6583 -67.1252 22.7663 -155.8761 28.9256 -1.9039 -92.1167 -0.0449 0.9184 0.0792 -2.2064 6.7301 43.6253 -137.6102 -0.3229 104.8765 17.1556 -10.0767 62.6836 0.5639 -0.9941 1.0967 -35.0211 21.0177 90.0676 -10.2022 66.5625 -10.3808 0.0662 -19.9574 -3.0472 8.4320 -18.5376 21.5574 -25.0765 -18.5452 81.5205 8.0594 65.2352 6.9635 -4.1163 -6.5460 0.9687 2.3956 -18.6006 -12.7187 
0.0000 93.1000 0.0000 74.1427 -25.8409 -4.8024 -71.0452 0.3988 87.4513 122.8182 67.9062 -38.1415 -5.7903 19.0090 9.8162 -124.5414 41.7276 151.0123 145.8610 83.5784 -109.0027 -0.1903 -17.8764 -24.2045 -67.4210 22.9156 -156.8609 28.3334 -1.2509 -91.2587 -0.1131 0.1390 0.3818 -2.7664 7.0790 42.9674 -136.8620 0.2312 103.5704 17.1539 -9.3778 64.2445 0.0335 -0.0514 0.2214 -36.8901 21.3426 91.2919 -9.9447 65.8347 -10.1528 0.1075 -19.8972 -2.0189 8.4565 -18.9564 21.7337 -25.9238 -19.8337 81.6028 7.9100 63.7249 8.1869 -3.1593 -4.3178 0.2233 2.7010 -22.0039 -18.9385 
0.0000 93.1000 0.0000 74.0228 -27.0266 -4.8368 -71.0740 0.1868 87.4966 122.3868 68.8524 -38.5448 -6.4351 19.7684 10.0958 -124.7950 41.3659 152.2049 146.2369 83.2406 -109.9780 -0.3479 -17.2516 -24.0110 -66.2989 22.4559 -156.8749 26.9097 -1.1816 -91.4657 -0.0094 0.3791 0.1942 -2.7833 6.7106 43.8001 -136.4651 0.8464 101.4544 18.1943 -8.2545 67.8240 0.0375 -0.3306 0.0670 -37.9918 21.1262 92.9810 -10.2375 66.0774 -10.5122 0.2755 -19.8133 -2.1509 7.5545 -18.3944 22.2004 -27.0986 -19.7320 80.7577 5.9631 61.5338 3.5723 -4.4850 -5.5555 0.4693 2.5250 -22.8442 -16.5244 
0.0000 93.1000 0.0000 73.3079 -27.8962 -5.0646 -71.2214 0.3135 87.5418 119.8097 69.0634 -36.7826 -6.0087 19.8681 9.7310 -124.7649 41.2471 152.3916 147.8043 82.6683 -112.8975 -0.0995 -16.7047 -23.3140 -65.9179 21.9288 -156.8471 27.0044 -1.8941 -92.2269 -0.2402 -0.0232 -0.2552 -2.9630 7.0130 44.1994 -135.8994 0.9229 100.9422 18.4780 -7.4278 70.0053 -0.0740 0.0934 -0.2784 -37.9198 20.6816 93.0192 -9.6968 66.5700 -10.1290 1.1440 -21.7589 -2.0028 6.4739 -17.1207 22.7507 -28.2832 -19.7029 79.9512 4.4356 58.4883 1.1350 -5.8277 -6.2541 0.4903 1.6673 -19.9491 -11.1767 
0.0000 93.1000 0.0000 74.3553 -28.1221 -4.8981 -71.1138 0.5736 87.7496 118.7812 69.3634 -36.3177 -5.9246 20.3795 9.3778 -125.6528 40.9399 153.1339 148.4184 82.1059 -114.8437 0.1312 -16.0858 -22.7801 -66.3814 21.7318 -155.9496 26.0607 -1.8600 -93.3846 0.0482 -0.0172 -0.2628 -2.7977 6.9654 44.8188 -135.2321 0.9143 99.7945 18.3220 -6.2023 71.9701 0.0529 0.0423 -0.0994 -37.1809 20.3699 92.8216 -9.7368 66.9353 -8.4688 1.1153 -22.0161 -2.1732 6.3829 -16.3707 22.6859 -29.2364 -19.4580 80.2035 4.1859 55.8326 1.8102 -4.5776 -6.3637 0.5251 0.8219 -15.6539 -7.1446 
0.0000 93.1000 0.0000 73.9241 -27.9969 -4.2477 -71.1742 0.2310 87.7533 118.8451 69.7909 -36.0820 -5.3775 20.7597 8.7498 -125.7745 40.7922 153.2204 146.6589 81.6360 -113.0619 -0.2356 -16.6985 -23.5226 -66.3444 22.0267 -154.5579 26.7878 -2.5106 -94.1926 0.0605 0.3548 -0.0856 -2.8072 7.0142 45.2379 -135.0397 1.1130 98.9376 19.2557 -6.0363 73.7788 0.1014 -0.3549 0.2717 -37.2250 20.0714 91.9294 -10.9169 67.8681 -7.8732 1.2117 -21.6986 -2.1940 6.2085 -15.7419 22.6847 -29.4894 -19.2481 79.3793 4.5612 56.9811 -0.0212 -4.8135 -5.5727 0.2876 1.1484 -14.3036 -2.2019 
0.0000 93.1000 0.0000 75.0046 -27.9560 -2.5846 -71.0359 0.0101 87.7817 118.9566 69.8209 -35.8788 -4.8193 21.4004 8.1605 -124.9814 39.9616 152.5343 145.9112 81.0901 -111.4577 -0.5679 -16.9244 -24.8451 -66.3986 22.9032 -154.0940 27.1248 -2.8133 -94.0765 -0.2241 0.6578 -0.0087 -2.8285 7.0517 46.0781 -134.8467 1.7211 99.0820 19.3058 -6.0039 74.8448 0.2071 -0.6908 0.3795 -37.7311 20.7481 92.1472 -11.4469 68.8049 -7.3554 1.8247 -21.4113 -2.2831 5.8106 -16.0150 23.1626 -31.0415 -18.9139 78.6915 4.2420 55.8901 3.4066 -5.4814 -5.4200 0.2065 1.3902 -13.2321 -5.0810 
0.0000 93.1000 0.0000 75.9323 -27.9681 -2.8077 -71.1364 0.1948 87.8385 117.9948 70.1533 -33.6752 -4.0146 21.0941 8.3773 -123.9077 40.3061 152.5941 150.2332 80.8541 -113.5127 -0.2982 -17.0694 -26.0040 -65.2171 24.0512 -151.8018 27.2898 -3.0954 -94.4441 -0.0889 0.1779 -0.3419 -3.0905 6.9361 47.1753 -134.8443 2.2400 98.2748 18.8685 -6.1876 74.5825 -0.1024 -0.1441 0.1913 -38.0989 21.1787 92.0784 -11.8314 69.0721 -6.9357 1.9282 -21.7088 -2.0475 6.1553 -15.8723 22.9265 -31.5221 -19.7605 76.8890 4.3297 55.2388 2.2621 -5.2222 -4.9968 0.3464 1.3696 -12.4456 -1.1726 
0.0000 93.1000 0.0000 75.8826 -27.9501 -2.6845 -71.1204 0.2325 87.9372 116.8771 70.0995 -32.9145 -3.4290 21.2124 8.1601 -124.9226 40.4245 153.0173 150.2128 80.8381 -115.5669 -0.1698 -17.0725 -27.1135 -63.5335 25.1622 -150.9399 28.1356 -2.9400 -95.2780 0.0696 0.1044 -0.0994 -3.1065 6.8244 47.3162 -134.2461 2.0896 98.1533 18.1268 -6.1582 73.8778 -0.1056 0.0034 0.1302 -37.9166 21.0420 91.6650 -12.4594 69.5044 -5.9546 1.5135 -21.9707 -1.9643 5.8383 -15.4997 22.6634 -31.7355 -20.2547 76.4382 3.9463 54.6454 2.0221 -5.2139 -4.7378 0.2648 0.9361 -13.0336 0.3012 
